<svg width="280" height="64" viewBox="0 0 280 64" fill="none" xmlns="http://www.w3.org/2000/svg">
<path fill-rule="evenodd" clip-rule="evenodd" d="M32.3332 4.93427C32.2156 4.94579 31.734 4.99287 31.2631 5.03895C30.082 5.15457 28.6524 5.40161 27.5712 5.67696C24.4948 6.46074 21.1371 8.26896 18.5287 10.5465C17.9243 11.0743 16.7755 12.198 16.8075 12.23C16.8222 12.2448 17.2107 12.1705 17.6708 12.065L18.5072 11.873L19.2077 11.2238C22.0378 8.59991 24.9862 7.06945 28.5367 6.38124C30.6968 5.96254 33.2736 5.96325 35.7042 6.38295C39.9577 7.11738 44.4218 9.22739 48.2209 12.2988C48.576 12.586 48.8961 12.8566 48.9323 12.9004C48.9789 12.9569 48.8198 12.9286 48.3801 12.8019C46.2683 12.1934 44.0765 12.0529 41.9109 12.3871C41.3886 12.4676 39.7788 12.8373 39.8108 12.8693C39.8196 12.8781 40.1392 12.9235 40.5211 12.97C47.1245 13.7755 52.981 17.3679 56.6983 22.8932C57.5169 24.11 57.5137 24.0542 56.7378 23.5675C55.9668 23.0831 55.2542 22.7088 54.458 22.3693C53.856 22.1126 52.5343 21.6664 52.186 21.6023L51.9738 21.5632L52.0762 21.7188C52.3814 22.1826 52.9597 23.2021 53.305 23.8854C54.6093 26.4666 55.4157 29.1657 55.7726 32.1442C55.9593 33.7035 55.9331 36.2768 55.7127 38.0435C55.6121 38.8517 55.2557 40.6713 55.1986 40.6713C55.1738 40.6713 55.1536 40.639 55.1536 40.5995C55.1536 40.5599 55.0186 40.1075 54.854 39.5938C53.2696 34.6547 50.3193 30.3737 46.2983 27.1791C45.3999 26.4653 44.146 25.6138 43.1415 25.0352L42.874 24.8811L43.0879 25.1284C43.2057 25.2645 43.5397 25.6498 43.8303 25.9847C46.333 28.8693 48.1311 32.6043 48.7836 36.2736C49.7192 41.5353 48.7331 46.8686 45.9628 51.5311C45.6866 51.9959 44.7521 53.3756 44.5643 53.5957L44.4042 53.7835L44.6386 53.0863C45.1039 51.7021 45.4481 50.3268 45.7057 48.8228C45.8706 47.8603 46.0049 46.731 45.9416 46.8388C45.9157 46.8829 45.6994 47.2569 45.4609 47.6698C43.0573 51.8313 39.6055 55.2334 35.4099 57.576C34.5785 58.04 33.9372 58.3687 33.863 58.3687C33.8345 58.3687 34.0658 58.1214 34.3767 57.819C36.1116 56.1321 37.6634 54.0053 38.7629 51.8082L39.0585 51.2175L38.2909 51.9445C35.0332 55.0306 31.5282 57.2604 27.5177 58.7981C26.335 59.2518 24.0431 59.972 23.9809 59.9097C23.9701 59.899 24.2436 59.233 24.5891 58.4296L25.217 56.9694L25.8857 56.6996C28.6841 55.5706 31.4267 53.8406 33.671 51.7892C35.7571 49.8822 37.6822 47.3128 39.0077 44.6666C39.4361 43.8116 39.9758 42.6018 39.9434 42.5694C39.934 42.56 39.7319 42.8125 39.4942 43.1303C36.547 47.0722 32.5923 50.3312 28.1603 52.4703C27.0202 53.0206 26.7954 53.1227 26.7954 53.0906C26.7954 53.0795 27.069 52.3621 27.4035 51.4963C28.1906 49.4586 29.0044 47.2646 28.9809 47.2434C28.9707 47.2341 28.6734 47.4547 28.3203 47.7333C25.4834 49.9719 20.7151 53.4261 16.9808 55.9478C15.9595 56.6375 15.4361 57.0199 15.5361 57.0034C15.6223 56.9893 15.9457 56.9518 16.2547 56.9199C17.9396 56.7464 20.2883 56.2256 21.922 55.6632C22.1403 55.5881 22.3277 55.5355 22.3385 55.5463C22.3708 55.5786 21.6277 57.7741 21.1655 59.0126C20.672 60.3345 19.9582 62.0678 19.4443 63.1919C19.2498 63.6177 19.0905 63.9733 19.0905 63.9828C19.0905 63.992 19.1627 64 19.251 64C19.3392 64 19.4115 63.9791 19.4115 63.9545C19.4115 63.9292 19.707 63.8933 20.0681 63.8734C21.5304 63.7952 23.8135 63.4734 25.4845 63.1103C30.0855 62.1102 34.4808 60.2616 38.3795 57.6859C39.3519 57.0435 40.8547 55.9424 41.5358 55.3732C41.7122 55.226 41.8625 55.1115 41.8699 55.1189C41.8952 55.1443 41.5087 56.2515 41.2033 57.028C41.0352 57.4557 40.6059 58.3906 40.2492 59.1053C39.8925 59.8202 39.6268 60.386 39.6589 60.3618C39.6909 60.3382 39.9819 60.1168 40.3056 59.87C46.6228 55.0581 50.6622 47.9134 51.5649 39.9559C51.6212 39.4593 51.6773 39.0429 51.6895 39.0306C51.7283 38.9918 52.3011 40.2398 52.6128 41.0426C53.3524 42.947 53.8517 45.099 54.0272 47.1334C54.0572 47.4874 54.0828 48.2476 54.084 48.8228L54.0861 49.8685L54.3558 49.4127C54.8042 48.6561 55.8047 46.597 56.1541 45.7124C57.5919 42.0716 58.2569 38.6175 58.2569 34.7924C58.2569 32.0182 57.9107 29.4988 57.1638 26.8376C57.0611 26.4703 56.985 26.1612 56.9958 26.1508C57.0059 26.1403 57.1675 26.1715 57.3548 26.2198C59.3372 26.732 61.3768 27.7725 62.845 29.0205C63.0292 29.1768 63.1795 29.2917 63.1795 29.2759C63.1795 29.26 63.0184 28.8792 62.8215 28.4298C59.8899 21.7432 54.8454 15.6567 48.7929 11.5052L48.2375 11.1244L48.3915 11.0639C48.6643 10.9571 49.7092 10.7045 50.1776 10.6325C50.6833 10.5546 52.1654 10.5363 52.8262 10.5998L53.2541 10.6409L53.1204 10.5355C52.9045 10.3656 51.1754 9.3389 50.3916 8.91522C47.1779 7.1784 43.3186 5.86682 39.6904 5.27831C37.941 4.99457 37.2099 4.94181 34.8212 4.9273C33.5705 4.91962 32.451 4.92275 32.3332 4.93427ZM37.3561 14.5584C37.8957 15.4471 38.386 16.4915 38.722 17.468C38.9335 18.0829 39.2909 19.4234 39.2533 19.461C39.2425 19.4719 38.9211 19.3842 38.5391 19.266C37.2693 18.8733 35.7281 18.527 34.1793 18.2862C33.7677 18.2222 36.0856 19.9309 37.336 20.6131C38.5066 21.2519 39.9889 21.8458 41.1618 22.1461C41.4855 22.2291 41.7691 22.3224 41.7921 22.3536C41.8886 22.4853 41.6765 20.9479 41.5058 20.2775C41.0257 18.3932 39.9303 16.5915 38.4727 15.2892C38.2154 15.0594 37.8265 14.7476 37.6085 14.5964L37.2123 14.3215L37.3561 14.5584ZM29.692 14.8957C29.1217 15.937 28.005 16.6592 26.8416 16.7393C26.3556 16.7726 26.3533 16.7916 26.7915 17.1519C28.007 18.1511 29.7372 18.0949 30.8089 17.0213C31.3926 16.4366 31.7154 15.6692 31.7171 14.8624L31.718 14.5004H30.8131H29.9085L29.692 14.8957ZM17.0305 17.5325C11.7025 18.1174 6.74915 20.2983 2.77105 23.8106C1.93279 24.5508 -0.118051 26.6741 0.00539796 26.6741C0.0204735 26.6741 0.450838 26.5198 0.961558 26.3312C4.83811 24.8993 9.01148 23.968 13.2316 23.5933C14.6561 23.4667 16.8153 23.3872 18.0646 23.4155L19.2057 23.4412L19.7767 23.259C20.9278 22.892 22.2189 22.6162 23.5048 22.4627C23.9168 22.4135 24.2615 22.366 24.2708 22.3571C24.3102 22.3195 22.5773 21.9344 21.7391 21.7943C19.3077 21.3882 16.5084 21.4342 13.2584 21.9337C9.93791 22.444 6.08966 23.5668 2.89151 24.9587C2.50154 25.1285 2.18253 25.2591 2.18253 25.249C2.18253 25.2135 2.91654 24.6444 3.49553 24.2311C6.98893 21.7374 11.0672 20.1458 15.3718 19.5961C16.5225 19.4492 18.0699 19.3637 19.0768 19.3913C19.5553 19.4044 19.9467 19.4035 19.9467 19.3892C19.9467 19.3749 19.6998 18.9332 19.3981 18.4073L18.8497 17.4514L18.2612 17.4567C17.9375 17.4595 17.3837 17.4936 17.0305 17.5325ZM32.9699 20.8155C33.722 21.984 34.1491 23.3164 34.2175 24.707L34.2488 25.3409L33.6121 24.6872C32.6639 23.7141 31.6103 22.8723 30.6253 22.3012L30.3622 22.1484L30.6044 22.4465C32.6538 24.9685 33.9776 28.2718 34.2935 31.6524L34.3599 32.3632L34.5389 32.0526C35.6958 30.0452 36.2934 27.4472 36.1092 25.2261C36.0192 24.1384 35.6872 22.4693 35.5332 22.329C35.5095 22.3074 34.8707 21.8768 34.1137 21.3719L32.7371 20.454L32.9699 20.8155ZM13.2048 25.5788C13.1018 25.5908 12.7526 25.6265 12.4289 25.6582C12.1052 25.6899 11.7972 25.7282 11.7446 25.7434C11.6871 25.76 11.923 25.8647 12.3331 26.0046C13.7121 26.475 14.9869 27.1297 16.1425 27.9612C16.4909 28.2119 16.8557 28.4856 16.9532 28.5693L17.1302 28.7215L17.0076 29.2661C16.6674 30.7778 16.0166 32.1435 15.0945 33.2803C14.9346 33.4774 14.0707 34.3935 13.1749 35.3159C12.2792 36.2385 11.5462 37.0108 11.5462 37.0323C11.5462 37.0536 12.0337 36.8331 12.6296 36.5423C13.2255 36.2513 14.0503 35.8697 14.4621 35.6944C15.399 35.2954 16.9544 34.7048 16.9857 34.7362C16.9987 34.7492 15.774 35.9612 14.2643 37.4298C8.91974 42.6288 7.44945 44.1732 5.18214 46.9712C4.76486 47.4862 4.65948 47.6454 4.75619 47.6156C5.05201 47.524 6.25478 46.9614 7.48458 46.3393C8.75832 45.6952 9.78574 45.2528 10.551 45.0192C10.7541 44.957 10.9272 44.9132 10.9356 44.9216C10.9438 44.93 10.8548 45.0882 10.7375 45.2732C9.67964 46.9409 8.3968 49.5003 7.52739 51.6779C6.94357 53.1399 5.85229 56.5945 5.94474 56.6872C5.95981 56.7024 6.23317 56.4894 6.55203 56.2139C8.37773 54.6368 10.7203 52.9424 12.8035 51.6921C16.0299 49.7557 20.1741 47.9292 25.8857 45.9263C29.351 44.7113 32.0954 43.4143 34.3398 41.9315C35.7009 41.0324 37.2342 39.7675 38.209 38.7401C40.2197 36.6205 41.2498 34.6442 41.7182 32.0074C41.8412 31.3146 41.9535 30.0015 41.9284 29.5502L41.9109 29.2355L41.7014 29.738C40.9805 31.4677 39.9046 33.2738 38.6482 34.8628C36.1483 38.0245 30.39 41.5859 24.1067 43.8566C23.6089 44.0366 23.4415 44.0394 23.7097 43.8632C23.9156 43.7279 24.9715 42.5291 25.4578 41.8785C26.2525 40.8151 26.886 39.723 27.3854 38.5552C27.6661 37.8991 28.1479 36.5052 28.1212 36.4268C28.1129 36.4028 27.8858 36.6421 27.6163 36.9586C24.1789 40.9951 19.6094 44.5366 14.7298 46.9457C13.7195 47.4445 12.2911 48.0858 12.26 48.0545C12.2331 48.0276 13.5287 45.8715 14.1508 44.908C14.4459 44.4507 15.1623 43.3768 15.7429 42.5215C17.0298 40.6251 17.5845 39.7272 18.1608 38.6065C18.9539 37.0641 19.5119 35.6268 20.0341 33.7799C20.0509 33.7209 19.9158 33.8891 19.7339 34.1537C19.1512 35.0012 18.5709 35.6311 17.7334 36.3251C17.6364 36.4055 17.6363 36.4018 17.7269 36.1933C18.361 34.7332 18.7429 33.4247 18.9632 31.9566C19.0076 31.6617 19.0575 30.8847 19.0744 30.2301L19.105 29.0398L19.459 29.2196C21.0396 30.0227 22.3882 31.7001 22.996 33.6191C23.0895 33.914 23.1785 34.1915 23.1939 34.2357C23.2688 34.4506 23.6177 33.0352 23.6864 32.2381C23.8111 30.7881 23.4246 29.2975 22.7248 28.5301C21.9221 27.6497 20.5059 26.8354 18.7962 26.2707C17.4155 25.8148 16.1246 25.6056 14.5158 25.5771C13.8977 25.5662 13.3079 25.567 13.2048 25.5788Z" fill="#DF1431"/>
<path fill-rule="evenodd" clip-rule="evenodd" d="M33.9416 0.157012C31.1145 0.630328 28.5765 1.43061 26.0277 2.65244C22.248 4.46435 18.9665 7.01312 16.3559 10.1649C15.652 11.0145 14.8196 12.1311 14.8186 12.2268C14.8177 12.3014 14.9075 12.3164 14.9349 12.2462C14.9645 12.17 16.1993 11.6686 16.9518 11.4271C17.3381 11.3032 17.8971 11.1488 18.1942 11.0841L18.7345 10.9662L19.4909 10.245C20.3702 9.40615 20.7889 9.05529 21.5707 8.50162C23.9788 6.79637 26.7152 5.79854 30.2685 5.33006C31.1393 5.21515 33.3641 5.17063 34.3275 5.24857C37.2216 5.48295 40.1111 6.27783 42.7493 7.56523C43.0447 7.7093 43.3202 7.8272 43.3616 7.8272C43.4031 7.8272 43.677 7.75509 43.9703 7.66691C45.3489 7.25276 46.9884 6.91243 48.4348 6.7402C48.8726 6.68814 49.2308 6.62997 49.2308 6.61091C49.2308 6.59186 48.9694 6.46912 48.65 6.33813C46.0622 5.27673 43.2205 4.53362 40.4099 4.18332L39.4859 4.06812L39.9123 3.72935C40.8566 2.97899 42.5491 1.99651 43.6258 1.57355C43.7966 1.50642 43.9365 1.43232 43.9365 1.40871C43.9365 1.34827 41.0437 1.35623 40.1009 1.41924C37.1445 1.61678 33.9813 2.23829 31.4192 3.12505L30.8898 3.30823L31.1869 3.03644C32.0536 2.24384 33.9058 0.947057 35.1033 0.294257L35.6432 0L35.2383 0.00384115C35.0157 0.00597448 34.4322 0.0748078 33.9416 0.157012ZM29.3563 6.56697C28.417 6.70819 27.9758 6.8086 27.1081 7.07854C25.2716 7.64999 23.8919 8.32626 22.8534 9.16423C22.0428 9.81817 21.4311 10.8203 21.1084 12.0223C20.9804 12.4998 20.9442 12.7653 21.0072 12.7653C21.0242 12.7653 21.214 12.6613 21.4289 12.5345C22.3238 12.0064 23.5608 11.4753 24.5527 11.1937C24.8514 11.109 25.0745 11.0568 25.0485 11.078C25.0225 11.0989 24.8303 11.2492 24.6214 11.4119C24.1674 11.7655 23.2586 12.6673 22.9137 13.1066C22.4546 13.6916 21.993 14.4165 21.673 15.0551C21.4979 15.4044 21.3547 15.7295 21.3547 15.7774C21.3547 15.8676 21.5468 15.9029 21.5798 15.8185C21.5896 15.7932 22.3027 15.5662 23.1645 15.3141C25.3783 14.6661 27.3216 14.0416 28.8986 13.4711C31.0595 12.6894 31.7638 12.5158 33.3578 12.3728C34.3309 12.2854 34.4283 12.2658 34.4283 12.1576C34.4283 12.0014 33.3079 11.7682 32.0243 11.6574C31.376 11.6014 30.0888 11.6223 29.6539 11.6959C29.4137 11.7366 30.0153 11.4578 30.9211 11.1088C34.1139 9.87876 38.7931 9.68121 44.4677 10.5368C44.9529 10.6099 45.3784 10.6603 45.413 10.6485C45.4909 10.6223 44.2909 9.85315 43.4503 9.39065C40.8482 7.95861 38.2911 7.10016 35.1666 6.60978C34.541 6.5115 34.189 6.49614 32.2404 6.4822C30.2739 6.46798 29.9503 6.47765 29.3563 6.56697ZM15.7092 14.3727C13.0256 14.8621 10.2605 15.8367 7.88682 17.1295C5.40575 18.4811 2.79228 20.7972 1.48952 22.7988C0.968705 23.5992 0.515585 24.5029 0.233132 25.305C-0.0830282 26.2027 -0.0773402 26.4846 0.248491 26.0673C0.514873 25.726 1.86044 24.3648 2.17261 24.1207C2.33802 23.9913 2.59644 23.7769 2.74677 23.6442C4.69165 21.9278 7.48191 20.2142 10.0907 19.1339C11.3341 18.619 12.3335 18.3093 14.1092 17.8888C15.4855 17.563 17.8482 17.2305 18.787 17.2305C19.087 17.2305 19.1396 17.2167 19.1393 17.1385C19.1392 17.088 18.8322 16.5737 18.4575 15.9959C18.0827 15.418 17.6757 14.7864 17.5529 14.5923L17.3299 14.2393L16.8707 14.242C16.6181 14.2434 16.0955 14.3023 15.7092 14.3727Z" fill="#F3F1F2"/>
<path d="M73.3469 42.7814C71.9087 42.7814 70.7676 42.5234 69.9234 42.0076C69.0949 41.4761 68.5087 40.7414 68.1648 39.8034C67.8209 38.8499 67.649 37.7322 67.649 36.4503V29.6034C67.649 28.2903 67.8209 27.1648 68.1648 26.2269C68.5087 25.2733 69.0949 24.5386 69.9234 24.0228C70.7676 23.5069 71.9087 23.249 73.3469 23.249C74.7538 23.249 75.848 23.4834 76.6297 23.9524C77.4269 24.4057 77.9897 25.0467 78.3179 25.8752C78.6462 26.7037 78.8103 27.6572 78.8103 28.7359V30.3772H74.7069V28.4779C74.7069 28.1028 74.6834 27.7432 74.6366 27.3993C74.6053 27.0554 74.4959 26.774 74.3083 26.5552C74.1207 26.3207 73.8002 26.2034 73.3469 26.2034C72.9092 26.2034 72.5809 26.3207 72.3621 26.5552C72.1589 26.7897 72.026 27.0867 71.9634 27.4462C71.9166 27.7901 71.8931 28.1575 71.8931 28.5483V37.4821C71.8931 37.9041 71.9244 38.2949 71.9869 38.6545C72.0651 38.9984 72.2057 39.2798 72.409 39.4986C72.6278 39.7018 72.9405 39.8034 73.3469 39.8034C73.7846 39.8034 74.0972 39.694 74.2848 39.4752C74.4724 39.2407 74.5897 38.9437 74.6366 38.5841C74.6834 38.2246 74.7069 37.8572 74.7069 37.4821V35.489H78.8103V37.1303C78.8103 38.209 78.6462 39.1782 78.3179 40.0379C78.0053 40.8821 77.4503 41.5543 76.6531 42.0545C75.8715 42.5391 74.7694 42.7814 73.3469 42.7814ZM86.5595 42.7814C85.1369 42.7814 84.0114 42.5313 83.1829 42.031C82.3544 41.5308 81.7604 40.8117 81.4008 39.8738C81.0413 38.9359 80.8615 37.8182 80.8615 36.5207V29.4628C80.8615 28.1497 81.0413 27.032 81.4008 26.1097C81.7604 25.1874 82.3544 24.4839 83.1829 23.9993C84.0114 23.4991 85.1369 23.249 86.5595 23.249C87.9976 23.249 89.1309 23.4991 89.9595 23.9993C90.8036 24.4839 91.4054 25.1874 91.765 26.1097C92.1245 27.032 92.3043 28.1497 92.3043 29.4628V36.5207C92.3043 37.8182 92.1245 38.9359 91.765 39.8738C91.4054 40.8117 90.8036 41.5308 89.9595 42.031C89.1309 42.5313 87.9976 42.7814 86.5595 42.7814ZM86.5595 39.8034C86.9972 39.8034 87.3176 39.694 87.5208 39.4752C87.724 39.2563 87.8569 38.9749 87.9195 38.631C87.982 38.2871 88.0132 37.9354 88.0132 37.5759V28.431C88.0132 28.0559 87.982 27.7041 87.9195 27.3759C87.8569 27.032 87.724 26.7506 87.5208 26.5317C87.3176 26.3129 86.9972 26.2034 86.5595 26.2034C86.153 26.2034 85.8482 26.3129 85.645 26.5317C85.4417 26.7506 85.3089 27.032 85.2463 27.3759C85.1838 27.7041 85.1526 28.0559 85.1526 28.431V37.5759C85.1526 37.9354 85.176 38.2871 85.2229 38.631C85.2854 38.9749 85.4105 39.2563 85.5981 39.4752C85.8013 39.694 86.1217 39.8034 86.5595 39.8034ZM100.346 42.7814C98.8918 42.7814 97.7506 42.5469 96.9221 42.0779C96.1092 41.5933 95.5387 40.8977 95.2104 39.991C94.8821 39.0687 94.718 37.9432 94.718 36.6145V23.5069H98.8683V37.2476C98.8683 37.6384 98.8996 38.0292 98.9621 38.42C99.0247 38.8108 99.1575 39.1313 99.3607 39.3814C99.5796 39.6315 99.9079 39.7566 100.346 39.7566C100.799 39.7566 101.127 39.6315 101.33 39.3814C101.534 39.1313 101.659 38.8108 101.706 38.42C101.768 38.0292 101.799 37.6384 101.799 37.2476V23.5069H105.973V36.6145C105.973 37.9432 105.801 39.0687 105.457 39.991C105.129 40.8977 104.558 41.5933 103.746 42.0779C102.933 42.5469 101.799 42.7814 100.346 42.7814ZM108.644 42.5V23.5069H111.598L115.491 32.6517V23.5069H118.961V42.5H116.124L112.231 32.6517V42.5H108.644ZM123.499 42.5V26.6255H120.639V23.5069H130.557V26.6255H127.72V42.5H123.499ZM132.229 42.5V23.5069H140.765V26.3676H136.427V31.0807H139.733V33.9883H136.427V39.6628H140.811V42.5H132.229ZM142.717 42.5V23.5069H147.946C149.228 23.5069 150.338 23.6476 151.276 23.929C152.214 24.2103 152.94 24.7184 153.456 25.4531C153.988 26.1722 154.254 27.1961 154.254 28.5248C154.254 29.3064 154.191 30.0021 154.066 30.6117C153.941 31.2214 153.706 31.7529 153.362 32.2062C153.034 32.6439 152.557 33.0113 151.932 33.3083L154.535 42.5H150.197L148.11 33.9883H146.914V42.5H142.717ZM146.914 31.5731H148.087C148.681 31.5731 149.142 31.4715 149.47 31.2683C149.798 31.0494 150.025 30.7446 150.15 30.3538C150.291 29.9474 150.361 29.4628 150.361 28.9C150.361 28.0871 150.213 27.454 149.916 27.0007C149.619 26.5474 149.071 26.3207 148.274 26.3207H146.914V31.5731Z" fill="#EBEBEB"/>
<path d="M161.541 42.7814C160.228 42.7814 159.189 42.5078 158.423 41.9607C157.672 41.4136 157.133 40.6476 156.805 39.6628C156.492 38.6623 156.336 37.5133 156.336 36.2159V29.8379C156.336 28.4936 156.508 27.329 156.852 26.3441C157.195 25.3593 157.782 24.6011 158.61 24.0697C159.454 23.5225 160.595 23.249 162.034 23.249C163.44 23.249 164.543 23.4834 165.34 23.9524C166.153 24.4214 166.731 25.0701 167.075 25.8986C167.419 26.7271 167.591 27.6963 167.591 28.8062V30.0255H163.487V28.4779C163.487 28.0715 163.456 27.6963 163.394 27.3524C163.347 27.0085 163.222 26.7349 163.018 26.5317C162.831 26.3129 162.518 26.2034 162.08 26.2034C161.627 26.2034 161.299 26.3285 161.096 26.5786C160.892 26.8131 160.76 27.1101 160.697 27.4697C160.65 27.8292 160.627 28.2044 160.627 28.5952V37.3883C160.627 37.8103 160.666 38.209 160.744 38.5841C160.838 38.9437 160.994 39.2407 161.213 39.4752C161.447 39.694 161.776 39.8034 162.198 39.8034C162.635 39.8034 162.972 39.6862 163.206 39.4517C163.44 39.2172 163.605 38.9124 163.698 38.5372C163.792 38.1621 163.839 37.7634 163.839 37.3414V35.1138H162.127V32.6517H167.614V42.5H164.847L164.613 40.929C164.363 41.4605 163.995 41.906 163.511 42.2655C163.026 42.6094 162.37 42.7814 161.541 42.7814ZM169.327 42.5L172.914 23.5069H177.698L181.238 42.5H177.369L176.736 38.4903H173.946L173.289 42.5H169.327ZM174.321 35.9814H176.338L175.329 28.5717L174.321 35.9814ZM183.086 42.5L183.414 23.5069H187.916L190.003 34.551L192.254 23.5069H196.592L196.92 42.5H193.942L193.591 29.8614L191.386 42.5H188.737L186.392 29.7676L186.111 42.5H183.086ZM199.69 42.5V23.5069H203.887V42.5H199.69ZM206.719 42.5V23.5069H209.673L213.566 32.6517V23.5069H217.036V42.5H214.199L210.306 32.6517V42.5H206.719ZM224.81 42.7814C223.497 42.7814 222.458 42.5078 221.692 41.9607C220.941 41.4136 220.402 40.6476 220.074 39.6628C219.761 38.6623 219.605 37.5133 219.605 36.2159V29.8379C219.605 28.4936 219.777 27.329 220.121 26.3441C220.465 25.3593 221.051 24.6011 221.879 24.0697C222.723 23.5225 223.865 23.249 225.303 23.249C226.71 23.249 227.812 23.4834 228.609 23.9524C229.422 24.4214 230 25.0701 230.344 25.8986C230.688 26.7271 230.86 27.6963 230.86 28.8062V30.0255H226.757V28.4779C226.757 28.0715 226.725 27.6963 226.663 27.3524C226.616 27.0085 226.491 26.7349 226.288 26.5317C226.1 26.3129 225.787 26.2034 225.35 26.2034C224.896 26.2034 224.568 26.3285 224.365 26.5786C224.162 26.8131 224.029 27.1101 223.966 27.4697C223.919 27.8292 223.896 28.2044 223.896 28.5952V37.3883C223.896 37.8103 223.935 38.209 224.013 38.5841C224.107 38.9437 224.263 39.2407 224.482 39.4752C224.717 39.694 225.045 39.8034 225.467 39.8034C225.905 39.8034 226.241 39.6862 226.475 39.4517C226.71 39.2172 226.874 38.9124 226.968 38.5372C227.061 38.1621 227.108 37.7634 227.108 37.3414V35.1138H225.397V32.6517H230.883V42.5H228.117L227.882 40.929C227.632 41.4605 227.265 41.906 226.78 42.2655C226.295 42.6094 225.639 42.7814 224.81 42.7814ZM233.182 42.5V38.889H236.793V42.5H233.182ZM239.052 42.5V23.5069H245.43C246.571 23.5069 247.509 23.7257 248.244 24.1634C248.978 24.5855 249.525 25.2108 249.885 26.0393C250.244 26.8522 250.424 27.8448 250.424 29.0172C250.424 30.4867 250.182 31.6122 249.697 32.3938C249.213 33.1598 248.556 33.6913 247.728 33.9883C246.899 34.2853 245.969 34.4338 244.937 34.4338H243.249V42.5H239.052ZM243.249 31.5028H244.656C245.172 31.5028 245.563 31.409 245.828 31.2214C246.094 31.0338 246.266 30.7524 246.344 30.3772C246.438 30.0021 246.485 29.5253 246.485 28.9469C246.485 28.4623 246.446 28.0402 246.368 27.6807C246.305 27.3055 246.141 27.0085 245.875 26.7897C245.61 26.5708 245.195 26.4614 244.633 26.4614H243.249V31.5028ZM252.448 42.5V23.5069H257.677C258.958 23.5069 260.068 23.6476 261.006 23.929C261.944 24.2103 262.671 24.7184 263.187 25.4531C263.718 26.1722 263.984 27.1961 263.984 28.5248C263.984 29.3064 263.922 30.0021 263.797 30.6117C263.671 31.2214 263.437 31.7529 263.093 32.2062C262.765 32.6439 262.288 33.0113 261.663 33.3083L264.266 42.5H259.928L257.841 33.9883H256.645V42.5H252.448ZM256.645 31.5731H257.817C258.411 31.5731 258.872 31.4715 259.201 31.2683C259.529 31.0494 259.756 30.7446 259.881 30.3538C260.021 29.9474 260.092 29.4628 260.092 28.9C260.092 28.0871 259.943 27.454 259.646 27.0007C259.349 26.5474 258.802 26.3207 258.005 26.3207H256.645V31.5731ZM271.764 42.7814C270.342 42.7814 269.216 42.5313 268.388 42.031C267.559 41.5308 266.965 40.8117 266.606 39.8738C266.246 38.9359 266.066 37.8182 266.066 36.5207V29.4628C266.066 28.1497 266.246 27.032 266.606 26.1097C266.965 25.1874 267.559 24.4839 268.388 23.9993C269.216 23.4991 270.342 23.249 271.764 23.249C273.202 23.249 274.336 23.4991 275.164 23.9993C276.008 24.4839 276.61 25.1874 276.97 26.1097C277.329 27.032 277.509 28.1497 277.509 29.4628V36.5207C277.509 37.8182 277.329 38.9359 276.97 39.8738C276.61 40.8117 276.008 41.5308 275.164 42.031C274.336 42.5313 273.202 42.7814 271.764 42.7814ZM271.764 39.8034C272.202 39.8034 272.522 39.694 272.726 39.4752C272.929 39.2563 273.062 38.9749 273.124 38.631C273.187 38.2871 273.218 37.9354 273.218 37.5759V28.431C273.218 28.0559 273.187 27.7041 273.124 27.3759C273.062 27.032 272.929 26.7506 272.726 26.5317C272.522 26.3129 272.202 26.2034 271.764 26.2034C271.358 26.2034 271.053 26.3129 270.85 26.5317C270.646 26.7506 270.514 27.032 270.451 27.3759C270.389 27.7041 270.357 28.0559 270.357 28.431V37.5759C270.357 37.9354 270.381 38.2871 270.428 38.631C270.49 38.9749 270.615 39.2563 270.803 39.4752C271.006 39.694 271.326 39.8034 271.764 39.8034Z" fill="#DF1431"/>
</svg>
