<svg width="32.000000" height="32.000000" viewBox="0 0 32 32" fill="none" xmlns="http://www.w3.org/2000/svg" xmlns:xlink="http://www.w3.org/1999/xlink">
	<desc>
			Created with Pixso.
	</desc>
	<defs>
		<clipPath id="clip1_390">
			<rect id="steam-fill" rx="0.000000" width="30.666666" height="30.666666" transform="translate(0.666667 0.666667)" fill="white" fill-opacity="0"/>
		</clipPath>
	</defs>
	<rect id="steam-fill" rx="0.000000" width="30.666666" height="30.666666" transform="translate(0.666667 0.666667)" fill="#FFFFFF" fill-opacity="0"/>
	<g clip-path="url(#clip1_390)">
		<path id="Vector" d="M16 2.66C9 2.66 3.26 8.06 2.72 14.93L9.86 17.88C10.47 17.47 11.2 17.22 11.99 17.22C12.06 17.22 12.13 17.23 12.2 17.23L15.38 12.63L15.38 12.56C15.38 9.79 17.63 7.54 20.4 7.54C23.17 7.54 25.43 9.79 25.43 12.57C25.43 15.34 23.17 17.59 20.4 17.59L20.29 17.59L15.76 20.83C15.76 20.89 15.76 20.94 15.76 21C15.76 23.09 14.08 24.78 11.99 24.78C10.18 24.78 8.64 23.47 8.29 21.75L3.18 19.63C4.76 25.23 9.9 29.33 16 29.33C23.37 29.33 29.33 23.36 29.33 16C29.33 8.63 23.36 2.66 16 2.66ZM9.43 22.22C9.72 22.82 10.23 23.33 10.89 23.61C12.33 24.21 14 23.52 14.6 22.08C14.89 21.38 14.89 20.61 14.6 19.91C14.31 19.21 13.77 18.67 13.07 18.38C12.38 18.09 11.64 18.1 10.98 18.34L12.68 19.04C13.74 19.49 14.24 20.71 13.8 21.77C13.36 22.83 12.13 23.34 11.07 22.9L9.43 22.22ZM23.75 12.56C23.75 10.71 22.25 9.21 20.4 9.21C18.55 9.21 17.05 10.71 17.05 12.56C17.05 14.41 18.55 15.91 20.4 15.91C22.25 15.91 23.75 14.41 23.75 12.56ZM20.41 10.04C21.8 10.04 22.93 11.16 22.93 12.55C22.93 13.94 21.8 15.07 20.41 15.07C19.02 15.07 17.89 13.94 17.89 12.55C17.89 11.16 19.02 10.04 20.41 10.04Z" fill="#000000" fill-opacity="1.000000" fill-rule="nonzero"/>
	</g>
</svg>
